<?xml version="1.0"?>
<svg xmlns="http://www.w3.org/2000/svg" id="Capa_1" enable-background="new 0 0 515.555 515.555" height="512px" viewBox="0 0 515.555 515.555" width="512px"><g><path d="m496.679 212.208c25.167 25.167 25.167 65.971 0 91.138s-65.971 25.167-91.138 0-25.167-65.971 0-91.138 65.971-25.167 91.138 0" data-original="#000000" class="active-path" data-old_color="#000000" fill="#374957"/><path d="m303.347 212.208c25.167 25.167 25.167 65.971 0 91.138s-65.971 25.167-91.138 0-25.167-65.971 0-91.138 65.971-25.167 91.138 0" data-original="#000000" class="active-path" data-old_color="#000000" fill="#374957"/><path d="m110.014 212.208c25.167 25.167 25.167 65.971 0 91.138s-65.971 25.167-91.138 0-25.167-65.971 0-91.138 65.971-25.167 91.138 0" data-original="#000000" class="active-path" data-old_color="#000000" fill="#374957"/></g> </svg>
